# xmcd
# 
# Track frame offsets:
#     150
#     18910
#     38503
#     53597
#     71623
#     90719
#     107404
#     131311
#     145973
#     166517
#     182960
#     198707
# 
# Disc length: 2882
# 
# Revision: 2
# Processed by: cddbd v1.5.2PL0 Copyright (c) Steve Scherf et al.
# Submitted via: fre:ac v1.0.31
# 
DISCID=960b400c
DTITLE=Lissie - Back To Forever
DYEAR=2013
DGENRE=Rock/Pop
TTITLE0=The Habit
TTITLE1=Further Away (Romance Police)
TTITLE2=Shameless
TTITLE3=They All Want You
TTITLE4=Sleepwalking
TTITLE5=I Don't Wanna Go To Work
TTITLE6=Mountaintop Removal
TTITLE7=Love In The City
TTITLE8=Bet On You
TTITLE9=Cold Fish
TTITLE10=Can't Take It Back
TTITLE11=Back To Forever
EXTD=YEAR: 2013
EXTT0=
EXTT1=
EXTT2=
EXTT3=
EXTT4=
EXTT5=
EXTT6=
EXTT7=
EXTT8=
EXTT9=
EXTT10=
EXTT11=
PLAYORDER=
